{"title":"The Hour 2011 Miniserie DVD9rip English Klam","uid":7135324,"size":5145485167,"categoryP":"video","categoryS":"movies","magnet":"?xt=urn:btih:b4789a4cb462819415e8346657583e67eeef1ad0&amp;dn=The+Hour+2011+Miniserie+DVD9rip+English+Klam&amp;tr=udp%3A%2F%2Ftracker.openbittorrent.com%3A80&amp;tr=udp%3A%2F%2Fopen.demonii.com%3A1337&amp;tr=udp%3A%2F%2Ftracker.coppersurfer.tk%3A6969&amp;tr=udp%3A%2F%2Fexodus.desync.com%3A6969","seeders":1,"leechers":0,"uploader":"Klambake","files":-1,"time":1332837763,"description":"With: Met Romola Garai, Dominic West and Ben Whishaw\nDe succesformule van dit nieuwe programma bestaat uit drie onderling zeer verschillende journalisten. De mysterieuze producente Bel Rowley is een gedreven vrouw in een mannenwereld. Haar beste vriend Freddie Lyon is een briljant en hartstochtelijk verslaggever. En Hector Madden is een charmante presentator met goede connecties. Nadat Freddie zijn tanden heeft gezet in een belangwekkend maar controversieel verhaal, valt het drietal ten prooi aan een ongekend heftige storm van politiek, ambitie, liefde en zelfs moord...\n\nA behind-the-scenes drama and espionage thriller in Cold War-era England that centers on a journalist, a producer, and an anchorman for an investigative news programme. \n\n------------------------ Dutch Friends ------------------------\n---------------------------------------------------------------\n- Bezoek ook eens mijn vrienden op: &lt;a href=&quot; http://www.Film-Test.nl&quot; rel=&quot;nofollow&quot; target=&quot;_NEW&quot;&gt; http://www.Film-Test.nl&lt;/a&gt; --\n----- voor mijn Nederlandse Sync. ondertitels ---- en meer ----\n------- http://www.Film-Test.nl ---- voor Films en meer -------\n---------------------------------------------------------------\n\nGeneral:\n\nComplete name                    : The HourPart01.avi\nFormat                           : AVI\nFormat/Info                      : Audio Video Interleave\nFile size                        : 848 MiB\nDuration                         : 59mn 2s\nOverall bit rate                 : 2 008 Kbps\n\nVideo:\n\nFormat                           : MPEG-4 Visual\nFormat profile                   : Simple@L3\nFormat settings, BVOP            : No\nFormat settings, QPel            : No\nFormat settings, GMC             : No warppoints\nFormat settings, Matrix          : Default (H.263)\nCodec ID                         : XVID\nCodec ID/Hint                    : XviD\nDuration                         : 59mn 2s\nBit rate                         : 1 549 Kbps\nWidth                            : 652 pixels\nHeight                           : 352 pixels\nDisplay aspect ratio             : 1.852\nFrame rate                       : 25.000 fps\nColor space                      : YUV\nChroma subsampling               : 4:2:0\nBit depth                        : 8 bits\nScan type                        : Progressive\nCompression mode                 : Lossy\nBits/(Pixel*Frame)               : 0.270\nStream size                      : 654 MiB (77%)\nWriting library                  : XviD 1.1.2 (UTC 2006-11-01)\n\nAudio:\n\nFormat                           : AC-3\nFormat/Info                      : Audio Coding 3\nMode extension                   : CM (complete main)\nCodec ID                         : 2000\nDuration                         : 59mn 2s\nBit rate mode                    : Constant\nBit rate                         : 448 Kbps\nChannel(s)                       : 6 channels\nChannel positions                : Front: L C R, Side: L R, LFE\nSampling rate                    : 48.0 KHz\nBit depth                        : 16 bits\nCompression mode                 : Lossy\nStream size                      : 189 MiB (22%)\nAlignment                        : Aligned on interleaves\nInterleave, duration             : 32 ms (0.80 video frame)\n\n","torrent":{"xt":"urn:btih:b4789a4cb462819415e8346657583e67eeef1ad0","amp;dn":"The+Hour+2011+Miniserie+DVD9rip+English+Klam","amp;tr":["udp%3A%2F%2Ftracker.openbittorrent.com%3A80","udp%3A%2F%2Fopen.demonii.com%3A1337","udp%3A%2F%2Ftracker.coppersurfer.tk%3A6969","udp%3A%2F%2Fexodus.desync.com%3A6969"],"infoHash":"b4789a4cb462819415e8346657583e67eeef1ad0","infoHashBuffer":{"type":"Buffer","data":[180,120,154,76,180,98,129,148,21,232,52,102,87,88,62,103,238,239,26,208]},"announce":[],"urlList":[]}}